# xmcd
#
# Track frame offsets:
# 150
# 11990
# 27252
# 36290
# 47552
# 61122
# 71037
# 83647
# 94235
# 104002
# 115445
# 127322
# 137280
# 147815
# 158772
# 171737
# 185665
# 201012
# 213822
# 223830
#
# Disc length: 3199 seconds
#
#
# Revision: 0
# Processed by: cddbd v1.5.2PL0 Copyright (c) Steve Scherf et al.
# Submitted via: FreeRIP 2.951 
#
DISCID=300c7d14
DTITLE=Country Outlaws - 20 Track Collection
DYEAR=2005
DGENRE=Country
TTITLE0=Me And Bobby McGee - Kenny Rogers and The First Edition
TTITLE1=Face Of A Fighter - Willie Nelson
TTITLE2=Love's Gonna Live Here - Waylon Jennings
TTITLE3=It Wasn't God Who Made Honkey Tonk Angles - Dolly Parton
TTITLE4=I'm The Only Hell My Momma Ever Raised - Johnny Paycheck
TTITLE5=Release Me - Barbara Mandrell
TTITLE6=Wasted Days And Wasted Nights - Freddy Fender
TTITLE7=Six Days On The Road - Dave Dudley
TTITLE8=Rawhide - Frankie Laine
TTITLE9=Big Town - Conway Twitty
TTITLE10=Heartbreak USA - Kitty Wells
TTITLE11=From A Jack To A King - Ned Miller
TTITLE12=Hello Walls - Faron Young
TTITLE13=I'm So Lonesome I Could Cry - Billie Jo Spears
TTITLE14=All The Time - Jack Greene
TTITLE15=Almost Persuaded - David Houston
TTITLE16=Woman - Don Gibson
TTITLE17=Satisfied Minds - Porter Wagner
TTITLE18=Truck Drivin' Son Of A Gun - Farlin Husky
TTITLE19=Devil Went Down To Georgia - Lynn Anderson
EXTD=
EXTT0=
EXTT1=
EXTT2=
EXTT3=
EXTT4=
EXTT5=
EXTT6=
EXTT7=
EXTT8=
EXTT9=
EXTT10=
EXTT11=
EXTT12=
EXTT13=
EXTT14=
EXTT15=
EXTT16=
EXTT17=
EXTT18=
EXTT19=
PLAYORDER=
